<?xml version="1.0" encoding="UTF-8" standalone="no"?>
<!-- Created with Inkscape (http://www.inkscape.org/) -->

<svg
   version="1.1"
   id="svg2"
   xml:space="preserve"
   width="933.33331"
   height="200"
   viewBox="0 0 933.33331 200"
   sodipodi:docname="logo.ai"
   xmlns:inkscape="http://www.inkscape.org/namespaces/inkscape"
   xmlns:sodipodi="http://sodipodi.sourceforge.net/DTD/sodipodi-0.dtd"
   xmlns="http://www.w3.org/2000/svg"
   xmlns:svg="http://www.w3.org/2000/svg"><defs
     id="defs6"><clipPath
       clipPathUnits="userSpaceOnUse"
       id="clipPath16"><path
         d="M 0,150 H 700 V 0 H 0 Z"
         id="path14" /></clipPath></defs><sodipodi:namedview
     id="namedview4"
     pagecolor="#ffffff"
     bordercolor="#666666"
     borderopacity="1.0"
     inkscape:pageshadow="2"
     inkscape:pageopacity="0.0"
     inkscape:pagecheckerboard="0" /><g
     id="g8"
     inkscape:groupmode="layer"
     inkscape:label="logo"
     transform="matrix(1.3333333,0,0,-1.3333333,0,200)"><g
       id="g10"><g
         id="g12"
         clip-path="url(#clipPath16)"><path
           d="m 79.092,71.343 c -11.505,7.824 -27.027,18.92 -31.003,22.01 -5.038,3.714 -7.588,7.367 -7.588,10.861 0,5.404 1.529,8.514 4.677,11.56 3.384,3.387 8.102,4.032 14.43,4.032 h 28.401 l 0.002,16.677 H 59.61 c -12.045,0 -20.296,-3.244 -28.466,-9.644 -8.149,-6.358 -10.281,-15.297 -10.281,-24.592 0,-9.1 6.139,-13.299 18.768,-23.334 6.692,-5.318 25.393,-18.838 29.455,-21.799 5.99,-4.367 9.549,-8.109 9.549,-12.32 0,-5.406 -1.531,-7.516 -4.677,-10.565 -3.234,-3.287 -8.06,-3.949 -14.35,-3.949 H 30.209 v -0.125 c -2.303,0 -4.29,-0.822 -5.912,-2.445 -1.595,-1.592 -2.399,-3.564 -2.399,-5.867 0,-2.303 0.805,-4.278 2.399,-5.867 1.619,-1.623 3.607,-2.446 5.912,-2.446 h 0.002 V 13.517 H 59.61 c 11.993,0 20.244,3.246 28.468,9.644 8.15,6.414 10.28,12.211 10.28,23.594 0,7.898 -7.761,16.762 -19.266,24.588"
           style="fill:#ffffff;fill-opacity:1;fill-rule:nonzero;stroke:none"
           id="path18" /><path
           d="m 153.563,88.001 v 15.855 h -29.121 v 21.514 c 0.038,0.373 0.063,0.752 0.063,1.141 0,2.761 -0.967,5.131 -2.875,7.039 -1.947,1.947 -4.334,2.933 -7.094,2.933 h -9.969 v -9.972 -67.994 c 0,-12.37 4.432,-23.075 13.172,-31.821 8.744,-8.746 19.452,-13.179 31.824,-13.179 h 4 v 16 h -7.688 c -6.307,0 -11.322,2.666 -15.333,8.148 -4.048,5.508 -6.099,12.522 -6.1,20.852 v 29.484 z"
           style="fill:#ffffff;fill-opacity:1;fill-rule:nonzero;stroke:none"
           id="path20" /><path
           d="M 224.918,79.833 V 59.122 c 0,-8.135 -2.311,-14.889 -7.064,-20.644 -4.668,-5.538 -10.098,-8.239 -16.575,-8.239 -6.47,0 -11.896,2.699 -16.584,8.25 -4.746,5.752 -7.054,12.504 -7.054,20.633 0,8.135 2.308,14.867 7.06,20.582 4.668,5.502 10.1,8.186 16.578,8.186 l 43.58,0.111 v 15.855 h -43.586 c -12.339,0 -22.99,-4.408 -31.65,-13.105 -8.695,-8.73 -13.103,-19.369 -13.103,-31.623 0,-12.336 4.41,-22.979 13.109,-31.637 8.646,-8.683 19.293,-13.094 31.633,-13.094 8.65,0 16.568,2.319 23.648,6.821 0.004,-1.842 0.016,-7.701 0.016,-7.701 h 19.933 v 66.316 z"
           style="fill:#ffffff;fill-opacity:1;fill-rule:nonzero;stroke:none"
           id="path22" /><path
           d="m 264.373,90.337 v 0 c -8.74,-8.746 -13.172,-19.451 -13.172,-31.82 0,-12.37 4.432,-23.075 13.172,-31.821 8.744,-8.746 19.451,-13.179 31.822,-13.179 h 32.002 v 16 h -32.002 c -6.306,0 -11.322,2.666 -15.332,8.148 -4.049,5.508 -6.099,12.522 -6.099,20.854 0,8.371 2.05,15.404 6.095,20.906 4.012,5.488 9.028,8.154 15.336,8.154 h 32.002 v 15.94 h -32.002 c -12.371,0 -23.078,-4.436 -31.822,-13.182"
           style="fill:#ffffff;fill-opacity:1;fill-rule:nonzero;stroke:none"
           id="path24" /><path
           d="M 420.367,103.776 H 394.57 l -38.56,-45.13 38.56,-45.129 h 25.797 c 0,0 -37.883,43.859 -38.978,45.129 1.095,1.267 38.978,45.13 38.978,45.13 m -62.89,-34.05 v 66.757 H 337.541 V 13.517 h 19.936 v 34.05 l -9.465,11.079 z"
           style="fill:#ffffff;fill-opacity:1;fill-rule:nonzero;stroke:none"
           id="path26" /><path
           d="m 441.961,133.55 c -1.947,1.947 -4.334,2.933 -7.094,2.933 h -9.969 V 126.511 13.856 h 19.938 v 112.655 c 0,2.761 -0.967,5.131 -2.875,7.039"
           style="fill:#ffffff;fill-opacity:1;fill-rule:nonzero;stroke:none"
           id="path28" /><path
           d="m 480.801,58.72 c 0,-3.545 0.801,-7.414 0.801,-7.414 h 61.882 v 7.591 c 0,12.415 -4.437,23.127 -13.191,31.838 -8.701,8.741 -19.416,13.176 -31.834,13.176 -0.34,0 -0.672,-0.023 -1.01,-0.033 -0.035,0 -0.066,0.006 -0.103,0.006 -12.418,0 -23.131,-4.438 -31.832,-13.178 C 456.76,81.995 452.32,71.284 452.32,58.87 c 0,-12.332 4.436,-23.039 13.188,-31.826 8.713,-8.75 19.431,-13.188 31.851,-13.188 h 4.414 c 2.235,0 4.166,0.799 5.741,2.373 1.543,1.543 2.324,3.459 2.324,5.694 0,2.232 -0.781,4.148 -2.324,5.693 -1.576,1.574 -3.506,2.373 -5.741,2.373 -0.52,0 -1.024,-0.048 -1.512,-0.137 l -2.896,0.073 c -6.521,0 -11.986,2.703 -16.685,8.238 -3.221,3.875 -5.323,8.219 -6.352,13.143 0,0 -0.801,3.836 -0.801,7.539 0,3.705 0.895,8.002 0.895,8.002 1.058,4.767 3.123,8.998 6.254,12.793 4.717,5.586 10.176,8.302 16.689,8.302 0.356,0.016 0.713,0.028 1.076,0.028 6.514,0 11.971,-2.717 16.688,-8.303 3.201,-3.877 5.293,-8.211 6.33,-13.107 h -39.857 c 0,0 -0.801,-4.295 -0.801,-7.84"
           style="fill:#ffffff;fill-opacity:1;fill-rule:nonzero;stroke:none"
           id="path30" /><path
           d="m 514.799,27.626 c -1.559,-1.523 -2.383,-3.496 -2.383,-5.703 0,-2.215 0.828,-4.192 2.393,-5.717 1.55,-1.551 3.468,-2.35 5.67,-2.35 2.234,0 4.164,0.799 5.738,2.373 1.543,1.543 2.326,3.459 2.326,5.694 0,2.232 -0.783,4.148 -2.326,5.693 -1.574,1.574 -3.506,2.373 -5.738,2.373 -2.198,0 -4.108,-0.797 -5.68,-2.363"
           style="fill:#54c4c8;fill-opacity:1;fill-rule:nonzero;stroke:none"
           id="path32" /><path
           d="m 533.502,27.626 c -1.559,-1.523 -2.383,-3.496 -2.383,-5.703 0,-2.215 0.828,-4.192 2.393,-5.717 1.552,-1.551 3.467,-2.35 5.67,-2.35 2.234,0 4.164,0.799 5.738,2.373 1.541,1.543 2.324,3.459 2.324,5.694 0,2.232 -0.781,4.148 -2.324,5.693 -1.576,1.574 -3.506,2.373 -5.738,2.373 -2.198,0 -4.108,-0.797 -5.68,-2.363"
           style="fill:#9bdccb;fill-opacity:1;fill-rule:nonzero;stroke:none"
           id="path34" /><path
           d="m 552.223,27.626 c -1.559,-1.523 -2.383,-3.496 -2.383,-5.703 0,-2.215 0.826,-4.192 2.394,-5.717 1.551,-1.551 3.465,-2.35 5.668,-2.35 2.235,0 4.164,0.799 5.739,2.373 1.541,1.543 2.324,3.459 2.324,5.694 0,2.232 -0.779,4.148 -2.324,5.693 -1.577,1.574 -3.504,2.373 -5.739,2.373 -2.195,0 -4.105,-0.797 -5.679,-2.363"
           style="fill:#ede221;fill-opacity:1;fill-rule:nonzero;stroke:none"
           id="path36" /><path
           d="m 598.178,58.604 c -5.33,3.327 -21.424,10.625 -25.09,12.7 -3.041,1.75 -4.639,3.468 -4.639,6.123 0,3.283 0.887,5.738 2.713,7.506 2.035,2.037 4.945,3.021 8.91,3.021 h 21 l 0.002,15.69 h -21 c -9.201,0 -17.058,-2.5 -23.353,-7.432 -6.444,-5.027 -9.709,-11.34 -9.709,-18.762 0,-6.394 4.767,-12.51 14.576,-18.699 5.346,-3.377 11.605,-6.59 16.785,-9.303 5.18,-2.713 13.264,-6.263 13.264,-10.711 0,-3.285 -0.889,-4.74 -2.715,-6.509 -1.94,-1.971 -4.912,-2.961 -8.85,-2.961 h -11.335 c 1.461,-2.134 2.228,-4.63 2.228,-7.344 0,-3.177 -1.052,-6.058 -3.042,-8.406 h 12.151 c 9.158,0 17.014,2.498 23.35,7.427 6.445,5.073 9.713,11.385 9.713,18.766 0,6.525 -4.893,12.707 -14.959,18.894"
           style="fill:#ffffff;fill-opacity:1;fill-rule:nonzero;stroke:none"
           id="path38" /><path
           d="m 664.178,58.604 c -5.33,3.327 -21.424,10.625 -25.09,12.7 -3.041,1.75 -4.639,3.468 -4.639,6.123 0,3.283 0.887,5.738 2.713,7.506 2.035,2.037 4.945,3.021 8.91,3.021 h 21 l 0.002,15.69 h -21 c -9.201,0 -17.058,-2.5 -23.353,-7.432 -6.444,-5.027 -9.709,-11.34 -9.709,-18.762 0,-6.394 4.767,-12.51 14.576,-18.699 5.346,-3.377 11.605,-6.59 16.785,-9.303 5.18,-2.713 13.264,-6.263 13.264,-10.711 0,-3.285 -0.889,-4.74 -2.715,-6.509 -1.94,-1.971 -4.912,-2.961 -8.85,-2.961 h -27.991 c -1.909,-4.611 -5.126,-8.757 -9.587,-12.269 -1.689,-1.314 -3.473,-2.471 -5.339,-3.481 h 42.919 c 9.158,0 17.014,2.498 23.35,7.427 6.445,5.073 9.713,11.385 9.713,18.766 0,6.525 -4.893,12.707 -14.959,18.894"
           style="fill:#ffffff;fill-opacity:1;fill-rule:nonzero;stroke:none"
           id="path40" /></g></g></g></svg>
