<?xml version="1.0" encoding="UTF-8" standalone="no"?>
<svg
   xmlns:dc="http://purl.org/dc/elements/1.1/"
   xmlns:cc="http://creativecommons.org/ns#"
   xmlns:rdf="http://www.w3.org/1999/02/22-rdf-syntax-ns#"
   xmlns:svg="http://www.w3.org/2000/svg"
   xmlns="http://www.w3.org/2000/svg"
   viewBox="0 0 946.29333 225.94667"
   height="225.94667"
   width="946.29333"
   xml:space="preserve"
   id="svg2"
   version="1.1"><metadata
     id="metadata8"><rdf:RDF><cc:Work
         rdf:about=""><dc:format>image/svg+xml</dc:format><dc:type
           rdf:resource="http://purl.org/dc/dcmitype/StillImage" /></cc:Work></rdf:RDF></metadata><defs
     id="defs6" /><g
     transform="matrix(1.3333333,0,0,-1.3333333,0,225.94667)"
     id="g10"><g
       transform="scale(0.1)"
       id="g12"><path
         id="path14"
         style="fill:#53c4c8;fill-opacity:1;fill-rule:nonzero;stroke:none"
         d="M 250.117,1446.26 C 86.7813,1286.36 0,1079.35 0,847.121 0,614.359 86.7813,406.809 251.801,246.051 414.563,83.8789 615.859,0 847.227,0 c 234.753,0 437.233,83.8789 602.803,248.832 162.19,162.277 244.39,363.859 244.39,598.289 0,234.789 -82.2,435.809 -244.39,598.269 -165.57,165.31 -368.05,249.25 -602.803,249.25 -230.786,0 -431.536,-83.66 -597.11,-248.38" /><path
         id="path16"
         style="fill:#9bdccb;fill-opacity:1;fill-rule:nonzero;stroke:none"
         d="m 2951.03,1446.26 c -163.89,-159.9 -250.64,-366.91 -250.64,-599.139 0,-232.762 87.33,-440.312 251.8,-601.07 C 3114.91,83.8789 3316.24,0 3547.61,0 c 234.79,0 437.21,83.8789 603.03,248.832 162.27,162.277 243.89,363.859 243.89,598.289 0,234.789 -81.62,435.809 -243.89,598.269 -165.82,165.31 -368.24,249.25 -603.03,249.25 -230.83,0 -431.53,-83.66 -596.58,-248.38" /><path
         id="path18"
         style="fill:#ede221;fill-opacity:1;fill-rule:nonzero;stroke:none"
         d="m 5653.41,1446.26 c -164.43,-159.9 -250.69,-366.91 -250.69,-599.139 0,-232.762 87.4,-440.312 251.76,-601.07 C 5817.86,83.8789 6018.61,0 6250,0 c 234.79,0 437.8,83.8789 603.36,248.832 161.04,162.277 243.84,363.859 243.84,598.289 0,234.789 -81.66,435.809 -243.84,598.269 -165.56,165.31 -368.57,249.25 -603.36,249.25 -230.21,0 -430.95,-83.66 -596.59,-248.38" /></g></g></svg>